<?xml version="1.0" standalone="no"?>
<!DOCTYPE svg PUBLIC "-//W3C//DTD SVG 20010904//EN"
 "http://www.w3.org/TR/2001/REC-SVG-20010904/DTD/svg10.dtd">
<svg version="1.0" xmlns="http://www.w3.org/2000/svg"
 width="540.000000pt" height="540.000000pt" viewBox="0 0 540.000000 540.000000"
 preserveAspectRatio="xMidYMid meet">
<metadata>
Created by potrace 1.14, written by Peter Selinger 2001-2017
</metadata>
<g transform="translate(0.000000,540.000000) scale(0.100000,-0.100000)"
fill="#000000" stroke="none">
<path d="M2965 5198 c-9 -24 -43 -115 -75 -203 -93 -256 -292 -790 -297 -795
-3 -3 -442 -7 -976 -10 l-972 -5 0 -610 0 -610 748 -3 c637 -2 747 -4 747 -16
0 -11 -150 -438 -185 -528 -7 -17 -50 -18 -659 -20 l-651 -3 0 -610 0 -610
417 -5 c229 -3 419 -8 422 -11 3 -3 -40 -134 -97 -290 -57 -156 -107 -296
-111 -311 -7 -31 2 -38 87 -67 29 -10 270 -97 536 -194 266 -98 494 -177 506
-177 19 0 27 10 43 57 63 184 356 970 364 978 6 6 352 12 981 15 l972 5 3 599
c1 434 -1 603 -9 612 -9 12 -139 14 -750 14 l-739 0 1 28 c0 15 42 140 92 277
l92 250 644 3 c458 1 648 5 658 13 11 10 13 118 11 613 l-3 601 -417 5 c-229
3 -420 8 -424 12 -4 4 43 146 105 314 61 169 108 311 104 315 -17 17 -1099
409 -1128 409 -18 0 -27 -10 -40 -42z"/>
</g>
</svg>
